HIERARCHY
ROOT Hips
{
	OFFSET 0.00000 0.00000 0.00000
	CHANNELS 6 Xposition Yposition Zposition Zrotation Yrotation Xrotation 
	JOINT LHipJoint
	{
		OFFSET 0 0 0
		CHANNELS 3 Zrotation Yrotation Xrotation
		JOINT LeftUpLeg
		{
			OFFSET 1.56857 -1.73443 1.15205
			CHANNELS 3 Zrotation Yrotation Xrotation
			JOINT LeftLeg
			{
				OFFSET 2.39362 -6.57643 0.00000
				CHANNELS 3 Zrotation Yrotation Xrotation
				JOINT LeftFoot
				{
					OFFSET 2.50952 -6.89485 0.00000
					CHANNELS 3 Zrotation Yrotation Xrotation
					JOINT LeftToeBase
					{
						OFFSET 0.17171 -0.47178 1.88682
						CHANNELS 3 Zrotation Yrotation Xrotation
						End Site
						{
							OFFSET 0.00000 -0.00000 0.98146
						}
					}
				}
			}
		}
	}
	JOINT RHipJoint
	{
		OFFSET 0 0 0
		CHANNELS 3 Zrotation Yrotation Xrotation
		JOINT RightUpLeg
		{
			OFFSET -1.28153 -1.73443 1.15205
			CHANNELS 3 Zrotation Yrotation Xrotation
			JOINT RightLeg
			{
				OFFSET -2.26861 -6.23296 0.00000
				CHANNELS 3 Zrotation Yrotation Xrotation
				JOINT RightFoot
				{
					OFFSET -2.54143 -6.98254 0.00000
					CHANNELS 3 Zrotation Yrotation Xrotation
					JOINT RightToeBase
					{
						OFFSET -0.23309 -0.64041 1.93119
						CHANNELS 3 Zrotation Yrotation Xrotation
						End Site
						{
							OFFSET -0.00000 -0.00000 1.02013
						}
					}
				}
			}
		}
	}
	JOINT LowerBack
	{
		OFFSET 0 0 0
		CHANNELS 3 Zrotation Yrotation Xrotation
		JOINT Spine
		{
			OFFSET -0.07096 2.10460 -0.27878
			CHANNELS 3 Zrotation Yrotation Xrotation
			JOINT Spine1
			{
				OFFSET -0.00826 2.13662 -0.08279
				CHANNELS 3 Zrotation Yrotation Xrotation
				JOINT Neck
				{
					OFFSET 0 0 0
					CHANNELS 3 Zrotation Yrotation Xrotation
					JOINT Neck1
					{
						OFFSET 0.03239 1.77799 0.24435
						CHANNELS 3 Zrotation Yrotation Xrotation
						JOINT Head
						{
							OFFSET 0.01026 1.74194 -0.49664
							CHANNELS 3 Zrotation Yrotation Xrotation
							End Site
							{
								OFFSET 0.00170 1.83057 -0.19653
							}
						}
					}
				}
				JOINT LeftShoulder
				{
					OFFSET 0 0 0
					CHANNELS 3 Zrotation Yrotation Xrotation
					JOINT LeftArm
					{
						OFFSET 3.19178 1.35907 -0.31412
						CHANNELS 3 Zrotation Yrotation Xrotation
						JOINT LeftForeArm
						{
							OFFSET 4.85247 -0.00000 -0.00000
							CHANNELS 3 Zrotation Yrotation Xrotation
							JOINT LeftHand
							{
								OFFSET 3.55584 -0.00000 0.00000
								CHANNELS 3 Zrotation Yrotation Xrotation
								JOINT LeftFingerBase
								{
									OFFSET 0 0 0
									CHANNELS 3 Zrotation Yrotation Xrotation
									JOINT LeftHandIndex1
									{
										OFFSET 0.69320 -0.00000 0.00000
										CHANNELS 3 Zrotation Yrotation Xrotation
										End Site
										{
											OFFSET 0.55888 -0.00000 0.00000
										}
									}
								}
								JOINT LThumb
								{
									OFFSET 0 0 0
									CHANNELS 3 Zrotation Yrotation Xrotation
									End Site
									{
										OFFSET 0.56741 -0.00000 0.56741
									}
								}
							}
						}
					}
				}
				JOINT RightShoulder
				{
					OFFSET 0 0 0
					CHANNELS 3 Zrotation Yrotation Xrotation
					JOINT RightArm
					{
						OFFSET -3.28999 1.24191 -0.26899
						CHANNELS 3 Zrotation Yrotation Xrotation
						JOINT RightForeArm
						{
							OFFSET -4.64462 -0.00000 0.00000
							CHANNELS 3 Zrotation Yrotation Xrotation
							JOINT RightHand
							{
								OFFSET -3.40703 -0.00000 0.00000
								CHANNELS 3 Zrotation Yrotation Xrotation
								JOINT RightFingerBase
								{
									OFFSET 0 0 0
									CHANNELS 3 Zrotation Yrotation Xrotation
									JOINT RightHandIndex1
									{
										OFFSET -0.61958 -0.00000 0.00000
										CHANNELS 3 Zrotation Yrotation Xrotation
										End Site
										{
											OFFSET -0.49952 -0.00000 0.00000
										}
									}
								}
								JOINT RThumb
								{
									OFFSET 0 0 0
									CHANNELS 3 Zrotation Yrotation Xrotation
									End Site
									{
										OFFSET -0.50715 -0.00000 0.50715
									}
								}
							}
						}
					}
				}
			}
		}
	}
}
MOTION
Frames: 8
Frame Time: .0083333
-28.5007 17.065 1.1071 0 0 0 0 0 0 -21 0 0 0 0 0 0 0 0 0 0 0 0 0 0 21 0 0 0 0 0 0 0 0 0 0 0 0 0 0 0 0 0 0 0 0 0 0 -16 0 0 21 0 0 11 0 0 0 -8 0 0 0 0 0 0 0 0 0 0 0 0 0 0 0 0 0 0 0 0 8 0 0 0 0 0 0 0 0 0 0 0 0 0 0 0 0 0
-28.5007 17.0650 1.1071 37.8151 84.1087 37.3784 0.0000 0.0000 0.0000 -21.2897 5.8967 11.3153 0.0240 -1.0000 -2.7488 0.2614 9.8543 -17.7108 0.0487 -1.4235 -3.9147 0.0000 0.0000 0.0000 8.4006 -5.6661 7.0210 -0.0189 -0.8882 2.4413 -0.7204 2.9194 -15.3098 -0.0409 -1.3058 3.5906 -6.5630 2.1110 4.1670 -1.7433 2.4567 -0.5380 1.7003 1.3326 -3.0959 5.6889 2.8436 -20.7018 -1.6407 2.9653 27.3964 -1.0609 1.8267 12.6832 0.0000 -0.0000 0.0000 -85.9362 3.7358 36.9463 12.0219 -19.8375 -2.1097 -0.0000 -0.0000 15.1096 17.8316 -23.6861 -7.3632 -7.1250 0.0000 -0.0000 -7.0315 5.3962 6.3885 0.0000 -0.0000 0.0000 89.1574 -6.2698 32.7282 -16.3021 25.9286 -3.7771 0.0000 0.0000 3.8292 -9.1744 -32.9723 5.0232 7.1250 -0.0000 -0.0000 27.2897 -61.1866 -11.2293
-28.4998 17.0648 1.1023 39.2193 84.0359 38.8211 0.0000 0.0000 0.0000 -21.5137 5.9009 11.1949 0.0222 -0.9627 -2.6461 0.2794 9.7207 -17.7813 0.0399 -1.2888 -3.5438 0.0000 0.0000 0.0000 8.1470 -5.7956 6.9249 -0.0188 -0.8851 2.4328 -0.7128 3.0168 -15.2117 -0.0378 -1.2541 3.4483 -6.7047 2.0757 4.1322 -1.7735 2.4044 -0.5609 1.7524 1.3098 -3.1008 5.6056 2.8525 -20.6125 -1.5571 2.9831 27.2890 -1.0129 1.8356 12.6193 0.0000 -0.0000 0.0000 -86.0210 3.7534 36.5775 12.0166 -19.8295 -2.1079 -0.0000 -0.0000 15.1013 17.0518 -24.0874 -7.1353 -7.1250 0.0000 -0.0000 -7.5431 5.1023 6.9037 0.0000 -0.0000 0.0000 89.0966 -6.3312 32.9552 -16.3598 26.0061 -3.8023 0.0000 0.0000 3.8646 -9.2488 -32.9598 5.0628 7.1250 -0.0000 -0.0000 27.2009 -61.1938 -11.1943
-28.4979 17.0661 1.0995 40.5290 83.9689 40.1193 0.0000 0.0000 0.0000 -21.6693 5.9994 11.1626 0.0221 -0.9608 -2.6410 0.2876 9.5434 -17.6858 0.0360 -1.2241 -3.3655 0.0000 0.0000 0.0000 7.9345 -5.8644 6.9306 -0.0181 -0.8684 2.3868 -0.7043 3.0242 -15.1165 -0.0298 -1.1153 3.0660 -6.8463 2.0710 4.1292 -1.8198 2.3910 -0.5683 1.7839 1.3062 -3.1099 5.6902 2.8480 -20.5954 -1.6662 2.9867 27.3541 -1.0684 1.8333 12.6456 -0.0000 0.0000 0.0000 -86.0788 3.7224 36.2381 11.9592 -19.7435 -2.0885 -0.0000 -0.0000 15.2390 16.3140 -24.3042 -6.8690 -7.1250 0.0000 -0.0000 -8.0127 4.9892 7.3594 -0.0000 0.0000 0.0000 89.1036 -6.3624 32.9204 -16.2936 25.9171 -3.7734 0.0000 0.0000 4.0944 -9.3337 -32.4586 5.0410 7.1250 -0.0000 -0.0000 26.6443 -60.7741 -10.6790
-28.4967 17.0676 1.0981 40.8998 83.9500 40.4202 0.0000 0.0000 0.0000 -21.6967 6.0731 11.2511 0.0230 -0.9797 -2.6930 0.2752 9.5535 -17.5448 0.0413 -1.3119 -3.6075 0.0000 0.0000 0.0000 7.9107 -5.7585 7.0796 -0.0173 -0.8502 2.3368 -0.7049 2.8958 -15.1418 -0.0358 -1.2219 3.3596 -6.8938 2.0854 4.1980 -1.8380 2.4023 -0.5547 1.7883 1.3131 -3.1367 5.6855 2.8517 -20.5654 -1.6060 2.9775 27.3447 -1.0462 1.8373 12.6344 -0.0000 0.0000 0.0000 -86.0650 3.7136 36.0853 11.9648 -19.7519 -2.0904 -0.0000 -0.0000 15.2332 16.4690 -24.3428 -6.9475 -7.1250 0.0000 -0.0000 -7.9200 4.9278 7.2818 -0.0000 0.0000 0.0000 89.1336 -6.3894 32.8161 -16.2843 25.9046 -3.7693 0.0000 0.0000 4.1722 -9.2901 -32.3429 5.0013 7.1250 -0.0000 -0.0000 26.5832 -60.6618 -10.5809
-28.4959 17.0677 1.0969 40.2863 83.9779 39.7581 0.0000 0.0000 0.0000 -21.6142 6.0741 11.3669 0.0244 -1.0077 -2.7700 0.2685 9.6026 -17.5165 0.0363 -1.2295 -3.3805 0.0000 0.0000 0.0000 7.9694 -5.7903 7.1172 -0.0176 -0.8567 2.3547 -0.7054 2.9710 -15.1361 -0.0580 -1.5537 4.2739 -6.8160 2.1034 4.2773 -1.8357 2.4230 -0.5534 1.7430 1.3230 -3.1784 5.7591 2.8375 -20.5669 -1.6870 2.9551 27.3297 -1.0936 1.8237 12.6305 0.0000 -0.0000 0.0000 -86.0300 3.7189 35.9072 12.0006 -19.8056 -2.1025 -0.0000 -0.0000 15.0855 16.7543 -24.6066 -7.1449 -7.1250 0.0000 -0.0000 -7.7637 4.6186 7.1809 0.0000 -0.0000 0.0000 89.1822 -6.3899 32.6460 -16.2578 25.8690 -3.7578 0.0000 0.0000 4.2618 -9.1314 -32.1492 4.8887 7.1250 -0.0000 -0.0000 26.5704 -60.4532 -10.4425
-28.4960 17.0664 1.0962 39.0381 84.0565 38.5085 0.0000 0.0000 0.0000 -21.4379 6.0395 11.4351 0.0253 -1.0271 -2.8235 0.2800 9.5627 -17.6143 0.0259 -1.0382 -2.8538 0.0000 0.0000 0.0000 8.1114 -5.9049 7.0604 -0.0185 -0.8786 2.4148 -0.7040 3.1174 -15.0997 -0.0754 -1.7711 4.8736 -6.6454 2.1262 4.2987 -1.8317 2.4603 -0.5469 1.6490 1.3382 -3.1794 5.8704 2.7942 -20.6106 -1.7946 2.8818 27.3209 -1.1658 1.7874 12.6364 0.0000 -0.0000 0.0000 -85.9046 3.7441 36.2429 12.0233 -19.8396 -2.1102 -0.0000 -0.0000 15.0933 16.3532 -24.2653 -6.8760 -7.1250 0.0000 -0.0000 -7.9860 5.0229 7.3292 0.0000 -0.0000 0.0000 89.2695 -6.3635 32.5269 -16.2012 25.7927 -3.7331 0.0000 0.0000 4.4298 -9.1426 -31.9014 4.8612 7.1250 -0.0000 -0.0000 26.3371 -60.2372 -10.2063
-28.4953 17.0648 1.0954 38.4179 84.1069 37.8669 0.0000 0.0000 0.0000 -21.3342 6.0542 11.4672 0.0254 -1.0281 -2.8262 0.2858 9.5431 -17.6624 0.0273 -1.0663 -2.9311 0.0000 0.0000 0.0000 8.2423 -5.8194 7.1502 -0.0179 -0.8645 2.3762 -0.7082 3.0161 -15.1604 -0.0740 -1.7546 4.8279 -6.5476 2.1478 4.3058 -1.8475 2.4944 -0.5234 1.5762 1.3523 -3.1564 5.9486 2.7652 -20.6809 -1.8018 2.8093 27.3492 -1.1935 1.7624 12.6607 0.0000 -0.0000 0.0000 -85.7873 3.6919 36.4049 12.0322 -19.8529 -2.1132 -0.0000 -0.0000 14.8136 15.6085 -24.2751 -6.5518 -7.1250 0.0000 -0.0000 -8.4447 5.1183 7.7441 0.0000 -0.0000 0.0000 89.3725 -6.3596 32.4302 -16.1955 25.7850 -3.7306 0.0000 0.0000 4.5462 -9.1806 -31.9002 4.8815 7.1250 -0.0000 -0.0000 26.2969 -60.2449 -10.1943
